<svg xmlns="http://www.w3.org/2000/svg" viewBox="0 0 720 277" width="720" height="277" font-family="system-ui,-apple-system,Segoe UI,Helvetica,Arial,sans-serif" role="img" aria-label="Context cost per release, one line per command">
<line x1="62" y1="231.0" x2="702" y2="231.0" stroke="#8b949e" stroke-opacity="0.25"/>
<text x="54" y="234.5" text-anchor="end" font-size="10" fill="#8b949e">0k</text>
<line x1="62" y1="211.4" x2="702" y2="211.4" stroke="#8b949e" stroke-opacity="0.25"/>
<text x="54" y="214.9" text-anchor="end" font-size="10" fill="#8b949e">2k</text>
<line x1="62" y1="191.9" x2="702" y2="191.9" stroke="#8b949e" stroke-opacity="0.25"/>
<text x="54" y="195.4" text-anchor="end" font-size="10" fill="#8b949e">4k</text>
<line x1="62" y1="172.3" x2="702" y2="172.3" stroke="#8b949e" stroke-opacity="0.25"/>
<text x="54" y="175.8" text-anchor="end" font-size="10" fill="#8b949e">6k</text>
<line x1="62" y1="152.8" x2="702" y2="152.8" stroke="#8b949e" stroke-opacity="0.25"/>
<text x="54" y="156.3" text-anchor="end" font-size="10" fill="#8b949e">8k</text>
<line x1="62" y1="133.2" x2="702" y2="133.2" stroke="#8b949e" stroke-opacity="0.25"/>
<text x="54" y="136.7" text-anchor="end" font-size="10" fill="#8b949e">10k</text>
<line x1="62" y1="113.7" x2="702" y2="113.7" stroke="#8b949e" stroke-opacity="0.25"/>
<text x="54" y="117.2" text-anchor="end" font-size="10" fill="#8b949e">12k</text>
<line x1="62" y1="94.1" x2="702" y2="94.1" stroke="#8b949e" stroke-opacity="0.25"/>
<text x="54" y="97.6" text-anchor="end" font-size="10" fill="#8b949e">14k</text>
<line x1="62" y1="74.6" x2="702" y2="74.6" stroke="#8b949e" stroke-opacity="0.25"/>
<text x="54" y="78.1" text-anchor="end" font-size="10" fill="#8b949e">16k</text>
<line x1="62" y1="55.0" x2="702" y2="55.0" stroke="#8b949e" stroke-opacity="0.25"/>
<text x="54" y="58.5" text-anchor="end" font-size="10" fill="#8b949e">18k</text>
<text x="78.0" y="249.0" text-anchor="middle" font-size="10" fill="#8b949e">v0.1.0</text>
<text x="121.4" y="249.0" text-anchor="middle" font-size="10" fill="#8b949e">v0.2.0</text>
<text x="164.9" y="249.0" text-anchor="middle" font-size="10" fill="#8b949e">v0.2.1</text>
<text x="208.3" y="249.0" text-anchor="middle" font-size="10" fill="#8b949e">v0.3.0</text>
<text x="251.7" y="249.0" text-anchor="middle" font-size="10" fill="#8b949e">v1.0.0</text>
<text x="295.1" y="249.0" text-anchor="middle" font-size="10" fill="#8b949e">v1.1.0</text>
<text x="338.6" y="249.0" text-anchor="middle" font-size="10" fill="#8b949e">v1.1.1</text>
<text x="382.0" y="249.0" text-anchor="middle" font-size="10" fill="#8b949e">v1.1.2</text>
<text x="425.4" y="249.0" text-anchor="middle" font-size="10" fill="#8b949e">v1.2.0</text>
<text x="468.9" y="249.0" text-anchor="middle" font-size="10" fill="#8b949e">v1.2.1</text>
<text x="512.3" y="249.0" text-anchor="middle" font-size="10" fill="#8b949e">v1.3.0</text>
<text x="555.7" y="249.0" text-anchor="middle" font-size="10" fill="#8b949e">v1.4.0</text>
<text x="599.1" y="249.0" text-anchor="middle" font-size="10" fill="#8b949e">v1.4.1</text>
<text x="642.6" y="249.0" text-anchor="middle" font-size="10" fill="#8b949e">v1.4.2</text>
<text x="686.0" y="249.0" text-anchor="middle" font-size="10" fill="#8b949e">v1.4.3</text>
<polyline points="78.0,130.9 121.4,79.8 164.9,85.3 208.3,70.0 251.7,125.5 295.1,125.2 338.6,125.4 382.0,125.3 425.4,125.3 468.9,123.6 512.3,117.0 555.7,119.9 599.1,113.7 642.6,113.7 686.0,112.7" fill="none" stroke="#2f81f7" stroke-width="2" stroke-linejoin="round"/>
<circle cx="78.0" cy="130.9" r="3" fill="#2f81f7"/>
<circle cx="121.4" cy="79.8" r="3" fill="#2f81f7"/>
<circle cx="164.9" cy="85.3" r="3" fill="#2f81f7"/>
<circle cx="208.3" cy="70.0" r="3" fill="#2f81f7"/>
<circle cx="251.7" cy="125.5" r="3" fill="#2f81f7"/>
<circle cx="295.1" cy="125.2" r="3" fill="#2f81f7"/>
<circle cx="338.6" cy="125.4" r="3" fill="#2f81f7"/>
<circle cx="382.0" cy="125.3" r="3" fill="#2f81f7"/>
<circle cx="425.4" cy="125.3" r="3" fill="#2f81f7"/>
<circle cx="468.9" cy="123.6" r="3" fill="#2f81f7"/>
<circle cx="512.3" cy="117.0" r="3" fill="#2f81f7"/>
<circle cx="555.7" cy="119.9" r="3" fill="#2f81f7"/>
<circle cx="599.1" cy="113.7" r="3" fill="#2f81f7"/>
<circle cx="642.6" cy="113.7" r="3" fill="#2f81f7"/>
<circle cx="686.0" cy="112.7" r="3" fill="#2f81f7"/>
<polyline points="208.3,101.6 251.7,147.1 295.1,147.1 338.6,145.7 382.0,145.7 425.4,145.7 468.9,144.0 512.3,137.3 555.7,139.1 599.1,139.1 642.6,139.2 686.0,139.2" fill="none" stroke="#e3742f" stroke-width="2" stroke-linejoin="round"/>
<circle cx="208.3" cy="101.6" r="3" fill="#e3742f"/>
<circle cx="251.7" cy="147.1" r="3" fill="#e3742f"/>
<circle cx="295.1" cy="147.1" r="3" fill="#e3742f"/>
<circle cx="338.6" cy="145.7" r="3" fill="#e3742f"/>
<circle cx="382.0" cy="145.7" r="3" fill="#e3742f"/>
<circle cx="425.4" cy="145.7" r="3" fill="#e3742f"/>
<circle cx="468.9" cy="144.0" r="3" fill="#e3742f"/>
<circle cx="512.3" cy="137.3" r="3" fill="#e3742f"/>
<circle cx="555.7" cy="139.1" r="3" fill="#e3742f"/>
<circle cx="599.1" cy="139.1" r="3" fill="#e3742f"/>
<circle cx="642.6" cy="139.2" r="3" fill="#e3742f"/>
<circle cx="686.0" cy="139.2" r="3" fill="#e3742f"/>
<polyline points="251.7,210.5 295.1,210.5 338.6,210.5 382.0,210.5 425.4,210.5 468.9,209.4 512.3,209.4 555.7,209.4 599.1,209.4 642.6,209.5 686.0,209.5" fill="none" stroke="#a371f7" stroke-width="2" stroke-linejoin="round"/>
<circle cx="251.7" cy="210.5" r="3" fill="#a371f7"/>
<circle cx="295.1" cy="210.5" r="3" fill="#a371f7"/>
<circle cx="338.6" cy="210.5" r="3" fill="#a371f7"/>
<circle cx="382.0" cy="210.5" r="3" fill="#a371f7"/>
<circle cx="425.4" cy="210.5" r="3" fill="#a371f7"/>
<circle cx="468.9" cy="209.4" r="3" fill="#a371f7"/>
<circle cx="512.3" cy="209.4" r="3" fill="#a371f7"/>
<circle cx="555.7" cy="209.4" r="3" fill="#a371f7"/>
<circle cx="599.1" cy="209.4" r="3" fill="#a371f7"/>
<circle cx="642.6" cy="209.5" r="3" fill="#a371f7"/>
<circle cx="686.0" cy="209.5" r="3" fill="#a371f7"/>
<polyline points="295.1,219.6 338.6,219.5 382.0,219.5 425.4,219.5 468.9,218.3 512.3,218.3 555.7,218.3 599.1,218.3 642.6,218.4 686.0,218.4" fill="none" stroke="#3fb950" stroke-width="2" stroke-linejoin="round"/>
<circle cx="295.1" cy="219.6" r="3" fill="#3fb950"/>
<circle cx="338.6" cy="219.5" r="3" fill="#3fb950"/>
<circle cx="382.0" cy="219.5" r="3" fill="#3fb950"/>
<circle cx="425.4" cy="219.5" r="3" fill="#3fb950"/>
<circle cx="468.9" cy="218.3" r="3" fill="#3fb950"/>
<circle cx="512.3" cy="218.3" r="3" fill="#3fb950"/>
<circle cx="555.7" cy="218.3" r="3" fill="#3fb950"/>
<circle cx="599.1" cy="218.3" r="3" fill="#3fb950"/>
<circle cx="642.6" cy="218.4" r="3" fill="#3fb950"/>
<circle cx="686.0" cy="218.4" r="3" fill="#3fb950"/>
<polyline points="512.3,210.7 555.7,210.7 599.1,210.1 642.6,210.2 686.0,210.2" fill="none" stroke="#db61a2" stroke-width="2" stroke-linejoin="round"/>
<circle cx="512.3" cy="210.7" r="3" fill="#db61a2"/>
<circle cx="555.7" cy="210.7" r="3" fill="#db61a2"/>
<circle cx="599.1" cy="210.1" r="3" fill="#db61a2"/>
<circle cx="642.6" cy="210.2" r="3" fill="#db61a2"/>
<circle cx="686.0" cy="210.2" r="3" fill="#db61a2"/>
<circle cx="66" cy="18" r="3.5" fill="#2f81f7"/>
<text x="75" y="21.5" font-size="11" fill="#8b949e">/open-pr:review 12,096</text>
<circle cx="246.0" cy="18" r="3.5" fill="#e3742f"/>
<text x="255.0" y="21.5" font-size="11" fill="#8b949e">/open-pr:fix 9,393</text>
<circle cx="398.0" cy="18" r="3.5" fill="#a371f7"/>
<text x="407.0" y="21.5" font-size="11" fill="#8b949e">/open-pr:upgrade 2,202</text>
<circle cx="66" cy="35" r="3.5" fill="#3fb950"/>
<text x="75" y="38.5" font-size="11" fill="#8b949e">/open-pr:clean 1,288</text>
<circle cx="232.0" cy="35" r="3.5" fill="#db61a2"/>
<text x="241.0" y="38.5" font-size="11" fill="#8b949e">/open-pr:feedback 2,126</text>
<text x="62" y="269" font-size="9" fill="#8b949e" fill-opacity="0.85">mean per group · cl100k_base proxy · each point frozen at its release · tests/token-history.json</text>
</svg>
