<svg xmlns="http://www.w3.org/2000/svg" viewBox="0 0 720 277" width="720" height="277" font-family="system-ui,-apple-system,Segoe UI,Helvetica,Arial,sans-serif" role="img" aria-label="Context cost per release, one line per command">
<line x1="62" y1="231.0" x2="702" y2="231.0" stroke="#8b949e" stroke-opacity="0.25"/>
<text x="54" y="234.5" text-anchor="end" font-size="10" fill="#8b949e">0k</text>
<line x1="62" y1="211.4" x2="702" y2="211.4" stroke="#8b949e" stroke-opacity="0.25"/>
<text x="54" y="214.9" text-anchor="end" font-size="10" fill="#8b949e">2k</text>
<line x1="62" y1="191.9" x2="702" y2="191.9" stroke="#8b949e" stroke-opacity="0.25"/>
<text x="54" y="195.4" text-anchor="end" font-size="10" fill="#8b949e">4k</text>
<line x1="62" y1="172.3" x2="702" y2="172.3" stroke="#8b949e" stroke-opacity="0.25"/>
<text x="54" y="175.8" text-anchor="end" font-size="10" fill="#8b949e">6k</text>
<line x1="62" y1="152.8" x2="702" y2="152.8" stroke="#8b949e" stroke-opacity="0.25"/>
<text x="54" y="156.3" text-anchor="end" font-size="10" fill="#8b949e">8k</text>
<line x1="62" y1="133.2" x2="702" y2="133.2" stroke="#8b949e" stroke-opacity="0.25"/>
<text x="54" y="136.7" text-anchor="end" font-size="10" fill="#8b949e">10k</text>
<line x1="62" y1="113.7" x2="702" y2="113.7" stroke="#8b949e" stroke-opacity="0.25"/>
<text x="54" y="117.2" text-anchor="end" font-size="10" fill="#8b949e">12k</text>
<line x1="62" y1="94.1" x2="702" y2="94.1" stroke="#8b949e" stroke-opacity="0.25"/>
<text x="54" y="97.6" text-anchor="end" font-size="10" fill="#8b949e">14k</text>
<line x1="62" y1="74.6" x2="702" y2="74.6" stroke="#8b949e" stroke-opacity="0.25"/>
<text x="54" y="78.1" text-anchor="end" font-size="10" fill="#8b949e">16k</text>
<line x1="62" y1="55.0" x2="702" y2="55.0" stroke="#8b949e" stroke-opacity="0.25"/>
<text x="54" y="58.5" text-anchor="end" font-size="10" fill="#8b949e">18k</text>
<text x="78.0" y="249.0" text-anchor="middle" font-size="10" fill="#8b949e">v0.1.0</text>
<text x="116.0" y="249.0" text-anchor="middle" font-size="10" fill="#8b949e">v0.2.0</text>
<text x="154.0" y="249.0" text-anchor="middle" font-size="10" fill="#8b949e">v0.2.1</text>
<text x="192.0" y="249.0" text-anchor="middle" font-size="10" fill="#8b949e">v0.3.0</text>
<text x="230.0" y="249.0" text-anchor="middle" font-size="10" fill="#8b949e">v1.0.0</text>
<text x="268.0" y="249.0" text-anchor="middle" font-size="10" fill="#8b949e">v1.1.0</text>
<text x="306.0" y="249.0" text-anchor="middle" font-size="10" fill="#8b949e">v1.1.1</text>
<text x="344.0" y="249.0" text-anchor="middle" font-size="10" fill="#8b949e">v1.1.2</text>
<text x="382.0" y="249.0" text-anchor="middle" font-size="10" fill="#8b949e">v1.2.0</text>
<text x="420.0" y="249.0" text-anchor="middle" font-size="10" fill="#8b949e">v1.2.1</text>
<text x="458.0" y="249.0" text-anchor="middle" font-size="10" fill="#8b949e">v1.3.0</text>
<text x="496.0" y="249.0" text-anchor="middle" font-size="10" fill="#8b949e">v1.4.0</text>
<text x="534.0" y="249.0" text-anchor="middle" font-size="10" fill="#8b949e">v1.4.1</text>
<text x="572.0" y="249.0" text-anchor="middle" font-size="10" fill="#8b949e">v1.4.2</text>
<text x="610.0" y="249.0" text-anchor="middle" font-size="10" fill="#8b949e">v1.4.3</text>
<text x="648.0" y="249.0" text-anchor="middle" font-size="10" fill="#8b949e">v2.0.0-rc1</text>
<text x="686.0" y="249.0" text-anchor="middle" font-size="10" fill="#8b949e">v2.0.0</text>
<polyline points="78.0,130.9 116.0,79.8 154.0,85.3 192.0,70.0 230.0,125.5 268.0,125.2 306.0,125.4 344.0,125.3 382.0,125.3 420.0,123.6 458.0,117.0 496.0,119.9 534.0,113.7 572.0,113.7 610.0,112.7 648.0,146.5 686.0,145.6" fill="none" stroke="#2f81f7" stroke-width="2" stroke-linejoin="round"/>
<circle cx="78.0" cy="130.9" r="3" fill="#2f81f7"/>
<circle cx="116.0" cy="79.8" r="3" fill="#2f81f7"/>
<circle cx="154.0" cy="85.3" r="3" fill="#2f81f7"/>
<circle cx="192.0" cy="70.0" r="3" fill="#2f81f7"/>
<circle cx="230.0" cy="125.5" r="3" fill="#2f81f7"/>
<circle cx="268.0" cy="125.2" r="3" fill="#2f81f7"/>
<circle cx="306.0" cy="125.4" r="3" fill="#2f81f7"/>
<circle cx="344.0" cy="125.3" r="3" fill="#2f81f7"/>
<circle cx="382.0" cy="125.3" r="3" fill="#2f81f7"/>
<circle cx="420.0" cy="123.6" r="3" fill="#2f81f7"/>
<circle cx="458.0" cy="117.0" r="3" fill="#2f81f7"/>
<circle cx="496.0" cy="119.9" r="3" fill="#2f81f7"/>
<circle cx="534.0" cy="113.7" r="3" fill="#2f81f7"/>
<circle cx="572.0" cy="113.7" r="3" fill="#2f81f7"/>
<circle cx="610.0" cy="112.7" r="3" fill="#2f81f7"/>
<circle cx="648.0" cy="146.5" r="3" fill="#2f81f7"/>
<circle cx="686.0" cy="145.6" r="3" fill="#2f81f7"/>
<polyline points="192.0,101.6 230.0,147.1 268.0,147.1 306.0,145.7 344.0,145.7 382.0,145.7 420.0,144.0 458.0,137.3 496.0,139.1 534.0,139.1 572.0,139.2 610.0,139.2 648.0,162.5 686.0,162.6" fill="none" stroke="#e3742f" stroke-width="2" stroke-linejoin="round"/>
<circle cx="192.0" cy="101.6" r="3" fill="#e3742f"/>
<circle cx="230.0" cy="147.1" r="3" fill="#e3742f"/>
<circle cx="268.0" cy="147.1" r="3" fill="#e3742f"/>
<circle cx="306.0" cy="145.7" r="3" fill="#e3742f"/>
<circle cx="344.0" cy="145.7" r="3" fill="#e3742f"/>
<circle cx="382.0" cy="145.7" r="3" fill="#e3742f"/>
<circle cx="420.0" cy="144.0" r="3" fill="#e3742f"/>
<circle cx="458.0" cy="137.3" r="3" fill="#e3742f"/>
<circle cx="496.0" cy="139.1" r="3" fill="#e3742f"/>
<circle cx="534.0" cy="139.1" r="3" fill="#e3742f"/>
<circle cx="572.0" cy="139.2" r="3" fill="#e3742f"/>
<circle cx="610.0" cy="139.2" r="3" fill="#e3742f"/>
<circle cx="648.0" cy="162.5" r="3" fill="#e3742f"/>
<circle cx="686.0" cy="162.6" r="3" fill="#e3742f"/>
<polyline points="230.0,210.5 268.0,210.5 306.0,210.5 344.0,210.5 382.0,210.5 420.0,209.4 458.0,209.4 496.0,209.4 534.0,209.4 572.0,209.5 610.0,209.5 648.0,209.8 686.0,209.9" fill="none" stroke="#a371f7" stroke-width="2" stroke-linejoin="round"/>
<circle cx="230.0" cy="210.5" r="3" fill="#a371f7"/>
<circle cx="268.0" cy="210.5" r="3" fill="#a371f7"/>
<circle cx="306.0" cy="210.5" r="3" fill="#a371f7"/>
<circle cx="344.0" cy="210.5" r="3" fill="#a371f7"/>
<circle cx="382.0" cy="210.5" r="3" fill="#a371f7"/>
<circle cx="420.0" cy="209.4" r="3" fill="#a371f7"/>
<circle cx="458.0" cy="209.4" r="3" fill="#a371f7"/>
<circle cx="496.0" cy="209.4" r="3" fill="#a371f7"/>
<circle cx="534.0" cy="209.4" r="3" fill="#a371f7"/>
<circle cx="572.0" cy="209.5" r="3" fill="#a371f7"/>
<circle cx="610.0" cy="209.5" r="3" fill="#a371f7"/>
<circle cx="648.0" cy="209.8" r="3" fill="#a371f7"/>
<circle cx="686.0" cy="209.9" r="3" fill="#a371f7"/>
<polyline points="268.0,219.6 306.0,219.5 344.0,219.5 382.0,219.5 420.0,218.3 458.0,218.3 496.0,218.3 534.0,218.3 572.0,218.4 610.0,218.4 648.0,218.8 686.0,218.8" fill="none" stroke="#3fb950" stroke-width="2" stroke-linejoin="round"/>
<circle cx="268.0" cy="219.6" r="3" fill="#3fb950"/>
<circle cx="306.0" cy="219.5" r="3" fill="#3fb950"/>
<circle cx="344.0" cy="219.5" r="3" fill="#3fb950"/>
<circle cx="382.0" cy="219.5" r="3" fill="#3fb950"/>
<circle cx="420.0" cy="218.3" r="3" fill="#3fb950"/>
<circle cx="458.0" cy="218.3" r="3" fill="#3fb950"/>
<circle cx="496.0" cy="218.3" r="3" fill="#3fb950"/>
<circle cx="534.0" cy="218.3" r="3" fill="#3fb950"/>
<circle cx="572.0" cy="218.4" r="3" fill="#3fb950"/>
<circle cx="610.0" cy="218.4" r="3" fill="#3fb950"/>
<circle cx="648.0" cy="218.8" r="3" fill="#3fb950"/>
<circle cx="686.0" cy="218.8" r="3" fill="#3fb950"/>
<polyline points="458.0,210.7 496.0,210.7 534.0,210.1 572.0,210.2 610.0,210.2 648.0,210.6 686.0,210.6" fill="none" stroke="#db61a2" stroke-width="2" stroke-linejoin="round"/>
<circle cx="458.0" cy="210.7" r="3" fill="#db61a2"/>
<circle cx="496.0" cy="210.7" r="3" fill="#db61a2"/>
<circle cx="534.0" cy="210.1" r="3" fill="#db61a2"/>
<circle cx="572.0" cy="210.2" r="3" fill="#db61a2"/>
<circle cx="610.0" cy="210.2" r="3" fill="#db61a2"/>
<circle cx="648.0" cy="210.6" r="3" fill="#db61a2"/>
<circle cx="686.0" cy="210.6" r="3" fill="#db61a2"/>
<circle cx="66" cy="18" r="3.5" fill="#2f81f7"/>
<text x="75" y="21.5" font-size="11" fill="#8b949e">/open-pr:review 8,737</text>
<circle cx="239.0" cy="18" r="3.5" fill="#e3742f"/>
<text x="248.0" y="21.5" font-size="11" fill="#8b949e">/open-pr:fix 6,999</text>
<circle cx="391.0" cy="18" r="3.5" fill="#a371f7"/>
<text x="400.0" y="21.5" font-size="11" fill="#8b949e">/open-pr:upgrade 2,159</text>
<circle cx="66" cy="35" r="3.5" fill="#3fb950"/>
<text x="75" y="38.5" font-size="11" fill="#8b949e">/open-pr:clean 1,245</text>
<circle cx="232.0" cy="35" r="3.5" fill="#db61a2"/>
<text x="241.0" y="38.5" font-size="11" fill="#8b949e">/open-pr:feedback 2,083</text>
<text x="62" y="269" font-size="9" fill="#8b949e" fill-opacity="0.85">mean per group · cl100k_base proxy · each point frozen at its release · tests/token-history.json</text>
</svg>
