<svg xmlns="http://www.w3.org/2000/svg" viewBox="0 0 720 277" width="720" height="277" font-family="system-ui,-apple-system,Segoe UI,Helvetica,Arial,sans-serif" role="img" aria-label="Context cost per release, one line per command">
<line x1="62" y1="231.0" x2="702" y2="231.0" stroke="#8b949e" stroke-opacity="0.25"/>
<text x="54" y="234.5" text-anchor="end" font-size="10" fill="#8b949e">0k</text>
<line x1="62" y1="211.4" x2="702" y2="211.4" stroke="#8b949e" stroke-opacity="0.25"/>
<text x="54" y="214.9" text-anchor="end" font-size="10" fill="#8b949e">2k</text>
<line x1="62" y1="191.9" x2="702" y2="191.9" stroke="#8b949e" stroke-opacity="0.25"/>
<text x="54" y="195.4" text-anchor="end" font-size="10" fill="#8b949e">4k</text>
<line x1="62" y1="172.3" x2="702" y2="172.3" stroke="#8b949e" stroke-opacity="0.25"/>
<text x="54" y="175.8" text-anchor="end" font-size="10" fill="#8b949e">6k</text>
<line x1="62" y1="152.8" x2="702" y2="152.8" stroke="#8b949e" stroke-opacity="0.25"/>
<text x="54" y="156.3" text-anchor="end" font-size="10" fill="#8b949e">8k</text>
<line x1="62" y1="133.2" x2="702" y2="133.2" stroke="#8b949e" stroke-opacity="0.25"/>
<text x="54" y="136.7" text-anchor="end" font-size="10" fill="#8b949e">10k</text>
<line x1="62" y1="113.7" x2="702" y2="113.7" stroke="#8b949e" stroke-opacity="0.25"/>
<text x="54" y="117.2" text-anchor="end" font-size="10" fill="#8b949e">12k</text>
<line x1="62" y1="94.1" x2="702" y2="94.1" stroke="#8b949e" stroke-opacity="0.25"/>
<text x="54" y="97.6" text-anchor="end" font-size="10" fill="#8b949e">14k</text>
<line x1="62" y1="74.6" x2="702" y2="74.6" stroke="#8b949e" stroke-opacity="0.25"/>
<text x="54" y="78.1" text-anchor="end" font-size="10" fill="#8b949e">16k</text>
<line x1="62" y1="55.0" x2="702" y2="55.0" stroke="#8b949e" stroke-opacity="0.25"/>
<text x="54" y="58.5" text-anchor="end" font-size="10" fill="#8b949e">18k</text>
<text x="78.0" y="249.0" text-anchor="middle" font-size="10" fill="#8b949e">v0.1.0</text>
<text x="118.5" y="249.0" text-anchor="middle" font-size="10" fill="#8b949e">v0.2.0</text>
<text x="159.1" y="249.0" text-anchor="middle" font-size="10" fill="#8b949e">v0.2.1</text>
<text x="199.6" y="249.0" text-anchor="middle" font-size="10" fill="#8b949e">v0.3.0</text>
<text x="240.1" y="249.0" text-anchor="middle" font-size="10" fill="#8b949e">v1.0.0</text>
<text x="280.7" y="249.0" text-anchor="middle" font-size="10" fill="#8b949e">v1.1.0</text>
<text x="321.2" y="249.0" text-anchor="middle" font-size="10" fill="#8b949e">v1.1.1</text>
<text x="361.7" y="249.0" text-anchor="middle" font-size="10" fill="#8b949e">v1.1.2</text>
<text x="402.3" y="249.0" text-anchor="middle" font-size="10" fill="#8b949e">v1.2.0</text>
<text x="442.8" y="249.0" text-anchor="middle" font-size="10" fill="#8b949e">v1.2.1</text>
<text x="483.3" y="249.0" text-anchor="middle" font-size="10" fill="#8b949e">v1.3.0</text>
<text x="523.9" y="249.0" text-anchor="middle" font-size="10" fill="#8b949e">v1.4.0</text>
<text x="564.4" y="249.0" text-anchor="middle" font-size="10" fill="#8b949e">v1.4.1</text>
<text x="604.9" y="249.0" text-anchor="middle" font-size="10" fill="#8b949e">v1.4.2</text>
<text x="645.5" y="249.0" text-anchor="middle" font-size="10" fill="#8b949e">v1.4.3</text>
<text x="686.0" y="249.0" text-anchor="middle" font-size="10" fill="#8b949e">v2.0.0-rc1</text>
<polyline points="78.0,130.9 118.5,79.8 159.1,85.3 199.6,70.0 240.1,125.5 280.7,125.2 321.2,125.4 361.7,125.3 402.3,125.3 442.8,123.6 483.3,117.0 523.9,119.9 564.4,113.7 604.9,113.7 645.5,112.7 686.0,146.5" fill="none" stroke="#2f81f7" stroke-width="2" stroke-linejoin="round"/>
<circle cx="78.0" cy="130.9" r="3" fill="#2f81f7"/>
<circle cx="118.5" cy="79.8" r="3" fill="#2f81f7"/>
<circle cx="159.1" cy="85.3" r="3" fill="#2f81f7"/>
<circle cx="199.6" cy="70.0" r="3" fill="#2f81f7"/>
<circle cx="240.1" cy="125.5" r="3" fill="#2f81f7"/>
<circle cx="280.7" cy="125.2" r="3" fill="#2f81f7"/>
<circle cx="321.2" cy="125.4" r="3" fill="#2f81f7"/>
<circle cx="361.7" cy="125.3" r="3" fill="#2f81f7"/>
<circle cx="402.3" cy="125.3" r="3" fill="#2f81f7"/>
<circle cx="442.8" cy="123.6" r="3" fill="#2f81f7"/>
<circle cx="483.3" cy="117.0" r="3" fill="#2f81f7"/>
<circle cx="523.9" cy="119.9" r="3" fill="#2f81f7"/>
<circle cx="564.4" cy="113.7" r="3" fill="#2f81f7"/>
<circle cx="604.9" cy="113.7" r="3" fill="#2f81f7"/>
<circle cx="645.5" cy="112.7" r="3" fill="#2f81f7"/>
<circle cx="686.0" cy="146.5" r="3" fill="#2f81f7"/>
<polyline points="199.6,101.6 240.1,147.1 280.7,147.1 321.2,145.7 361.7,145.7 402.3,145.7 442.8,144.0 483.3,137.3 523.9,139.1 564.4,139.1 604.9,139.2 645.5,139.2 686.0,162.5" fill="none" stroke="#e3742f" stroke-width="2" stroke-linejoin="round"/>
<circle cx="199.6" cy="101.6" r="3" fill="#e3742f"/>
<circle cx="240.1" cy="147.1" r="3" fill="#e3742f"/>
<circle cx="280.7" cy="147.1" r="3" fill="#e3742f"/>
<circle cx="321.2" cy="145.7" r="3" fill="#e3742f"/>
<circle cx="361.7" cy="145.7" r="3" fill="#e3742f"/>
<circle cx="402.3" cy="145.7" r="3" fill="#e3742f"/>
<circle cx="442.8" cy="144.0" r="3" fill="#e3742f"/>
<circle cx="483.3" cy="137.3" r="3" fill="#e3742f"/>
<circle cx="523.9" cy="139.1" r="3" fill="#e3742f"/>
<circle cx="564.4" cy="139.1" r="3" fill="#e3742f"/>
<circle cx="604.9" cy="139.2" r="3" fill="#e3742f"/>
<circle cx="645.5" cy="139.2" r="3" fill="#e3742f"/>
<circle cx="686.0" cy="162.5" r="3" fill="#e3742f"/>
<polyline points="240.1,210.5 280.7,210.5 321.2,210.5 361.7,210.5 402.3,210.5 442.8,209.4 483.3,209.4 523.9,209.4 564.4,209.4 604.9,209.5 645.5,209.5 686.0,209.8" fill="none" stroke="#a371f7" stroke-width="2" stroke-linejoin="round"/>
<circle cx="240.1" cy="210.5" r="3" fill="#a371f7"/>
<circle cx="280.7" cy="210.5" r="3" fill="#a371f7"/>
<circle cx="321.2" cy="210.5" r="3" fill="#a371f7"/>
<circle cx="361.7" cy="210.5" r="3" fill="#a371f7"/>
<circle cx="402.3" cy="210.5" r="3" fill="#a371f7"/>
<circle cx="442.8" cy="209.4" r="3" fill="#a371f7"/>
<circle cx="483.3" cy="209.4" r="3" fill="#a371f7"/>
<circle cx="523.9" cy="209.4" r="3" fill="#a371f7"/>
<circle cx="564.4" cy="209.4" r="3" fill="#a371f7"/>
<circle cx="604.9" cy="209.5" r="3" fill="#a371f7"/>
<circle cx="645.5" cy="209.5" r="3" fill="#a371f7"/>
<circle cx="686.0" cy="209.8" r="3" fill="#a371f7"/>
<polyline points="280.7,219.6 321.2,219.5 361.7,219.5 402.3,219.5 442.8,218.3 483.3,218.3 523.9,218.3 564.4,218.3 604.9,218.4 645.5,218.4 686.0,218.8" fill="none" stroke="#3fb950" stroke-width="2" stroke-linejoin="round"/>
<circle cx="280.7" cy="219.6" r="3" fill="#3fb950"/>
<circle cx="321.2" cy="219.5" r="3" fill="#3fb950"/>
<circle cx="361.7" cy="219.5" r="3" fill="#3fb950"/>
<circle cx="402.3" cy="219.5" r="3" fill="#3fb950"/>
<circle cx="442.8" cy="218.3" r="3" fill="#3fb950"/>
<circle cx="483.3" cy="218.3" r="3" fill="#3fb950"/>
<circle cx="523.9" cy="218.3" r="3" fill="#3fb950"/>
<circle cx="564.4" cy="218.3" r="3" fill="#3fb950"/>
<circle cx="604.9" cy="218.4" r="3" fill="#3fb950"/>
<circle cx="645.5" cy="218.4" r="3" fill="#3fb950"/>
<circle cx="686.0" cy="218.8" r="3" fill="#3fb950"/>
<polyline points="483.3,210.7 523.9,210.7 564.4,210.1 604.9,210.2 645.5,210.2 686.0,210.6" fill="none" stroke="#db61a2" stroke-width="2" stroke-linejoin="round"/>
<circle cx="483.3" cy="210.7" r="3" fill="#db61a2"/>
<circle cx="523.9" cy="210.7" r="3" fill="#db61a2"/>
<circle cx="564.4" cy="210.1" r="3" fill="#db61a2"/>
<circle cx="604.9" cy="210.2" r="3" fill="#db61a2"/>
<circle cx="645.5" cy="210.2" r="3" fill="#db61a2"/>
<circle cx="686.0" cy="210.6" r="3" fill="#db61a2"/>
<circle cx="66" cy="18" r="3.5" fill="#2f81f7"/>
<text x="75" y="21.5" font-size="11" fill="#8b949e">/open-pr:review 8,640</text>
<circle cx="239.0" cy="18" r="3.5" fill="#e3742f"/>
<text x="248.0" y="21.5" font-size="11" fill="#8b949e">/open-pr:fix 7,006</text>
<circle cx="391.0" cy="18" r="3.5" fill="#a371f7"/>
<text x="400.0" y="21.5" font-size="11" fill="#8b949e">/open-pr:upgrade 2,166</text>
<circle cx="66" cy="35" r="3.5" fill="#3fb950"/>
<text x="75" y="38.5" font-size="11" fill="#8b949e">/open-pr:clean 1,252</text>
<circle cx="232.0" cy="35" r="3.5" fill="#db61a2"/>
<text x="241.0" y="38.5" font-size="11" fill="#8b949e">/open-pr:feedback 2,090</text>
<text x="62" y="269" font-size="9" fill="#8b949e" fill-opacity="0.85">mean per group · cl100k_base proxy · each point frozen at its release · tests/token-history.json</text>
</svg>
